<?xml version="1.0" encoding="UTF-8"?>
<!-- Generated by Pixelmator Pro Trial 3.6.11 -->
<svg width="925" height="925" viewBox="0 0 925 925" xmlns="http://www.w3.org/2000/svg">
    <path id="TexL" fill="#3b3932" fill-rule="evenodd" stroke="none" d="M 566.006836 281 L 566.006836 333.342773 L 562 419 L 524 503 L 544 509 L 561.006836 473.917603 L 566.006836 684.933655 L 695 684.933655 L 695 798.96936 L 524.261719 798.96936 L 458 655 L 458.42099 374.710449 L 553 375 L 557 355 L 458.42099 353.590942 L 458.42099 281 Z"/>
    <path id="TexL-copy" fill="#3b3932" fill-rule="evenodd" stroke="none" d="M 780.006836 94 L 780.006836 356.185669 L 695 356 L 695 376 L 780.006836 376.701538 L 780.006836 497.933655 L 909 497.933655 L 909 611.96936 L 672.421021 611.96936 L 672.421021 243.806641 L 695 194 L 719 147 L 744.479492 94 Z"/>
    <path id="V" fill="#2b2b29" fill-rule="evenodd" stroke="none" visibility="hidden" d="M 183.770309 90 L 508 811 L 519 786 L 437.982208 607.843018 L 672.000061 93 L 720 93 L 526 503 L 544 507 L 743 93 L 837 93 L 487.497986 855 L 365.660492 855 L 15 93 Z"/>
    <g id="g1"/>
    <path id="Rectangle" fill="#1c1b18" fill-rule="evenodd" stroke="none" d="M 437 611 L 518 787 L 836 93 L 742 93 L 543 508 L 525 503 L 718 93 L 671 93 Z"/>
    <path id="path1" fill="#1c1b18" fill-rule="evenodd" stroke="none" d="M 369 874 L 487 855 L 507 811 L 182 90 L 15 93 Z"/>
    <path id="Circle" fill="#3b3932" fill-rule="evenodd" stroke="none" d="M 602 855.5 C 602 843.073608 523.649841 833 427 833 C 330.350159 833 252 843.073608 252 855.5 C 252 867.926392 330.350159 878 427 878 C 523.649841 878 602 867.926392 602 855.5 Z"/>
</svg>
