<svg fill="none" height="51" viewBox="0 0 65 51" width="65" xmlns="http://www.w3.org/2000/svg"><g clip-rule="evenodd" fill="white" fill-rule="evenodd"><path d="m.021975 19.5493.804001-3.3486c.078553-.3278.380824-.5833.766314-.6481l2.77286-.4663c.89114-.1499 1.51788.7275.95122 1.332l-3.57687 3.8148c-.63906.6818-1.92277.1706-1.717525-.6838"/><path d="m12.2118 14.033-3.59779 4.763c-.61378.8127-1.83895.2306-1.68468-.8003l1.32412-8.85247c.06243-.41738.36001-.75036.74759-.83672l6.44496-1.43386c.8774-.19514 1.4999.89209.9375 1.637z"/><path d="m17.9934 18.0272 2.1193-14.11829c.06-.39933.3414-.71975.7111-.80986l12.6142-3.0720894c.8885-.2162646 1.5082.9179854.8933 1.6354494l-14.7335 17.19039c-.6225.7264-1.7503.1462-1.6044-.8256"/><path d="m4.14955 48.5062c0 1.8453-1.36829 2.1808-2.07487 2.1808-.70639 0-2.07468-.3355-2.07468-2.1808v-16.1872c0-1.8449 1.36829-2.1808 2.07468-2.1808.70658 0 2.07487.3359 2.07487 2.1808z"/><path d="m14.6695 33.1797c-1.7923 0-3.6682.6985-3.6682 2.548 0 1.6438 1.5006 2.2602 4.5021 2.918 3.7516.8218 6.6276 2.3012 6.6276 5.7535 0 4.6031-3.8767 6.2878-7.8783 6.2878-2.376 0-4.83561-.7395-6.50293-2.1781-.667-.5753-.83375-1.1917-.83375-1.5615 0-.9866.70899-1.7264 1.70932-1.7264.45843 0 .91686.1644 1.45906.6166 1.2504 1.0687 2.6262 1.7261 4.2515 1.7261 1.9591 0 3.9184-.6985 3.9184-2.8357 0-1.8084-1.7926-2.4658-5.1689-3.2466-2.6262-.6167-5.7526-1.6853-5.7526-5.3839 0-4.192 3.71-5.9593 7.4618-5.9593 2.1259 0 4.2518.6167 5.7106 1.8495.7506.6163.9174 1.192.9174 1.5617 0 .9041-.6669 1.6849-1.7092 1.6849-.3751 0-.7923-.1644-1.2505-.5753-1.1673-1.0684-2.4593-1.4793-3.7934-1.4793"/><path d="m35.126 32.8308c-3.9599 0-6.5996 3.4274-6.5996 7.2778 0 3.8509 2.6397 7.2359 6.5996 7.2359 4.2486 0 6.517-3.512 6.517-7.2782 0-3.7658-2.2684-7.2355-6.517-7.2355zm-10.2295-12.8214c0-1.8618 1.2788-2.2003 1.9386-2.2003.66 0 1.9389.3385 1.9389 2.2003v13.0752h.1236c1.3202-1.9465 3.7535-3.5545 6.9708-3.5545 5.8161 0 9.7758 4.6122 9.7758 10.5362 0 5.8816-3.8362 10.6209-9.8582 10.6209-2.7637 0-5.5274-1.3117-7.0536-3.7235h-.0824v1.3962c0 1.8197-1.2786 2.1158-1.8561 2.1158-.6186 0-1.8974-.2961-1.8974-2.1158z"/><path d="m65.0101 48.716c0 1.0905-.8568 1.971-2.0135 1.971-.5143 0-1.0709-.1257-1.7994-1.0482l-5.8694-7.0873-6.0836 7.2131c-.6426.7967-1.2855.9224-1.7139.9224-1.0709 0-1.8848-.7548-1.8848-1.8032 0-.3774.1714-.9226.6854-1.5516l6.4263-7.4228-5.6124-6.4161c-.514-.5451-.6854-1.0905-.6854-1.4679 0-1.132.8996-1.8872 1.9708-1.8872.5142 0 1.1138.126 1.7993 1.0065l5.0983 6.2904 5.2269-6.4161c.5569-.7129 1.1997-.8808 1.6706-.8808 1.0283 0 1.8424.7131 1.8424 1.7613 0 .3356-.0857.8807-.5999 1.468l-5.6551 6.5 6.512 7.3389c.5571.6291.6854 1.1322.6854 1.5096"/></g></svg>